<svg xmlns="http://www.w3.org/2000/svg" width="500" height="500" viewBox="0 0 56 54" fill="none">
                        <g clip-path="url(#clip0_378_7)">
                          <path d="M41.6778 15.6426H34.7371V12.3442H41.6778C42.6356 12.3442 43.413 13.0814 43.413 13.9934C43.413 14.9038 42.6356 15.6426 41.6778 15.6426ZM36.4723 0.799925C36.4723 -1.93277 34.142 -4.14763 31.2668 -4.14763H22.5909C19.7158 -4.14763 17.3854 -1.93277 17.3854 0.799925V10.695H15.6503V0.799925C15.6503 -2.84312 18.758 -5.79681 22.5909 -5.79681H31.2668C35.0998 -5.79681 38.2075 -2.84312 38.2075 0.799925V10.695H36.4723V0.799925ZM19.1206 15.6426H12.1799C11.2204 15.6426 10.4448 14.9038 10.4448 13.9934C10.4448 13.0814 11.2204 12.3442 12.1799 12.3442H19.1206V15.6426ZM26.9289 19.7655C23.5731 19.7655 20.8558 17.1813 20.8558 13.9934C20.8558 10.8039 23.5731 8.22126 26.9289 8.22126C30.2847 8.22126 33.002 10.8039 33.002 13.9934C33.002 17.1813 30.283 19.7655 26.9289 19.7655ZM26.9289 10.695C25.0132 10.695 23.4585 12.1727 23.4585 13.9934C23.4585 15.8141 25.0132 17.2918 26.9289 17.2918C28.8445 17.2918 30.3992 15.8141 30.3992 13.9934C30.3992 12.1727 28.8445 10.695 26.9289 10.695ZM21.0501 17.4666C22.2751 19.3351 24.4406 20.5901 26.9289 20.5901C29.4171 20.5901 31.5809 19.3351 32.8076 17.4666C35.8962 18.1345 38.2075 20.7501 38.2075 23.8885V40.3804C38.2075 43.4495 35.9899 46.0074 33.002 46.7429V37.8027C33.002 34.6148 30.283 32.0305 26.9289 32.0305C23.5748 32.0305 20.8558 34.6148 20.8558 37.8027V46.7429C17.8661 46.0074 15.6503 43.4495 15.6503 40.3804V23.8885C15.6503 20.7501 17.9615 18.1345 21.0501 17.4666ZM26.9289 33.7836C29.3251 33.7836 31.2668 35.6291 31.2668 37.9066V49.4509C31.2668 51.7284 29.3251 53.5738 26.9289 53.5738C24.5326 53.5738 22.5909 51.7284 22.5909 49.4509V37.9066C22.5909 35.6291 24.5326 33.7836 26.9289 33.7836Z" fill="#49007E"/>
                        </g>
                        <defs>
                          <clipPath id="clip0_378_7">
                            <rect width="55.5254" height="52.7739" fill="white" transform="translate(0.0337524 0.799927)"/>
                          </clipPath>
                        </defs>
                      </svg>