<svg xmlns="http://www.w3.org/2000/svg" width="280" height="115.08" viewBox="0 0 280 115.07847034347292">
    <g transform="matrix(1.3538735925340284,0,0,1.3538735925340284,-30.924192877819774,-3.3841023162450474)" fill="#6b3b98">
        <path d="M65.532,53.661c2.473-2.341,2.081-5.645-0.869-7.341L59.1,43.118c-2.95-1.697-4.723-5.797-3.941-9.109l6.699-28.398
                 c0.781-3.312-0.602-4.108-3.073-1.767L24.467,36.339c-2.472,2.341-2.08,5.644,0.87,7.342l5.562,3.2
                 c2.949,1.698,4.724,5.798,3.943,9.109l-6.701,28.398c-0.78,3.312,0.602,4.107,3.074,1.767L65.532,53.661z"></path>
    </g>
    <g transform="matrix(1.6005941658762732,0,0,1.6005941658762732,79.36729337712522,17.99406292057391)" fill="#1a1a1a">
        <path d="M41.44 10.6 q0.4 0.56 0.2 1.24 l-8.44 27.08 q-0.12 0.44 -0.5 0.72 t-0.86 0.28 l-3.48 0 q-0.44 0 -0.82 -0.28
                 t-0.5 -0.68 l-6 -18.56 l-5.96 18.56 q-0.16 0.44 -0.52 0.7 t-0.84 0.26 l-3.48 0 q-0.72 0 -1.16 -0.56
                 q-0.4 -0.68 -0.16 -1.28 l9.04 -27.12 q0.12 -0.4 0.5 -0.68 t0.82 -0.28 l3.52 0 q0.48 0 0.84 0.28
                 t0.52 0.72 l5.92 18.4 l5.6 -18.4 q0.16 -0.44 0.54 -0.72 t0.82 -0.28 l3.24 0 q0.76 0 1.16 0.6 z M6.4 11
                 l2.28 7.48 q0.24 0.68 -0.2 1.26 t-1.16 0.58 l-3.16 0 q-0.48 0 -0.86 -0.28 t-0.5 -0.72 l-2.32 -7.48
                 q-0.24 -0.68 0.2 -1.26 t1.12 -0.58 l3.24 0 q0.48 0 0.86 0.28 t0.5 0.72 z M66.48 33.92 q0.6 0 1 0.42
                 t0.4 1.02 l0 2.92 q0 0.56 -0.4 0.98 t-1 0.42 l-19.76 0 q-0.56 0 -0.98 -0.42 t-0.42 -0.98 l0 -2.92
                 q0 -0.6 0.42 -1.02 t0.98 -0.42 l19.76 0 z M46.72 27.72 q-0.56 0 -0.98 -0.42 t-0.42 -0.98 l0 -3
                 q0 -0.56 0.42 -0.98 t0.98 -0.42 l17.96 0 q0.6 0 1.02 0.42 t0.42 0.98 l0 3 q0 0.56 -0.42 0.98
                 t-1.02 0.42 l-17.96 0 z M66.48 10 q0.6 0 1 0.42 t0.4 0.98 l0 2.92 q0 0.6 -0.4 1.02 t-1 0.42
                 l-19.76 0 q-0.56 0 -0.98 -0.42 t-0.42 -1.02 l0 -2.92 q0 -0.56 0.42 -0.98 t0.98 -0.42 l19.76 0 z
                 M93.88 33.92 q0.6 0 1 0.42 t0.4 1.02 l0 2.92 q0 0.56 -0.4 0.98 t-1 0.42 l-19.76 0 q-0.56 0
                 -0.98 -0.42 t-0.42 -0.98 l0 -2.92 q0 -0.6 0.42 -1.02 t0.98 -0.42 l19.76 0 z M74.12 27.72
                 q-0.56 0 -0.98 -0.42 t-0.42 -0.98 l0 -3 q0 -0.56 0.42 -0.98 t0.98 -0.42 l17.96 0 q0.6 0 1.02 0.42
                 t0.42 0.98 l0 3 q0 0.56 -0.42 0.98 t-1.02 0.42 l-17.96 0 z M93.88 10 q0.6 0 1 0.42 t0.4 0.98
                 l0 2.92 q0 0.6 -0.4 1.02 t-1 0.42 l-19.76 0 q-0.56 0 -0.98 -0.42 t-0.42 -1.02 l0 -2.92 q0 -0.56
                 0.42 -0.98 t0.98 -0.42 l19.76 0 z M125.08 10.64 q0.44 0.6 0.16 1.32 l-10.96 27.08 q-0.16 0.4
                 -0.52 0.64 t-0.8 0.24 l-3.52 0 q-0.44 0 -0.8 -0.24 t-0.52 -0.64 l-10.96 -27.08 q-0.32 -0.68 0.12
                 -1.32 t1.16 -0.64 l13.36 0 q0.56 0 0.98 0.42 t0.42 1.02 l0 2.92 q0 0.6 -0.42 1.02 t-0.98 0.42
                 l-6.72 0 l6.12 15.4 l8.04 -20.32 q0.16 -0.4 0.52 -0.64 t0.8 -0.24 l3.36 0 q0.36 0 0.68 0.18
                 t0.48 0.46 z"></path>
    </g>
</svg>