<?xml version="1.0" encoding="utf-8"?>
<svg xmlns="http://www.w3.org/2000/svg" viewBox="16.7977 27.1487 240.0145 60.1682" width="240.015px" height="60.169px">
  <defs>
    <linearGradient gradientUnits="userSpaceOnUse" x1="138.864" y1="20.664" x2="138.864" y2="70.577" id="gradient-1" gradientTransform="matrix(0.736444, 0.367953, -0.354944, 0.861061, 49.827058, -43.145264)">
      <stop offset="0" style="stop-color: rgb(216, 8, 128);"/>
      <stop offset="1" style="stop-color: rgb(57, 33, 171);"/>
    </linearGradient>
    <linearGradient gradientUnits="userSpaceOnUse" x1="41.634" y1="9.469" x2="41.634" y2="40.389" id="gradient-0" gradientTransform="matrix(-0.002113, -0.999998, 5.003926, -0.010574, -82.630693, 68.148434)">
      <stop offset="0" style="stop-color: rgb(57, 33, 171);"/>
      <stop offset="1" style="stop-color: rgb(216, 8, 128);"/>
    </linearGradient>
  </defs>
  <g transform="matrix(1.3538739681243896, 0, 0, 1.3538739681243896, -35.9241943359375, -6.384101867675781)" fill="#6b3b98">
    <path d="M 147.513 51.518 C 148.912 50.293 148.689 48.565 147.021 47.679 L 143.875 46.005 C 142.206 45.118 141.203 42.975 141.646 41.243 L 145.435 26.395 C 145.876 24.663 145.094 24.247 143.696 25.471 L 124.286 42.46 C 122.888 43.684 123.11 45.412 124.778 46.3 L 127.924 47.972 C 129.593 48.859 130.596 51.003 130.155 52.735 L 126.364 67.582 C 125.923 69.315 126.705 69.73 128.103 68.507 L 147.513 51.518 Z" style="fill: url(&quot;#gradient-1&quot;);"/>
  </g>
  <g transform="matrix(1.6005940437316895, 0, 0, 1.6005940437316895, 73.36729431152344, 17.994062423706055)" fill="#1a1a1a">
    <path d="M 5.702 10.069 C 5.968 10.442 6.035 10.856 5.902 11.309 L -2.538 38.389 C -2.618 38.682 -2.785 38.922 -3.038 39.109 C -3.292 39.296 -3.578 39.389 -3.898 39.389 L -7.378 39.389 C -7.672 39.389 -7.945 39.296 -8.198 39.109 C -8.452 38.922 -8.618 38.696 -8.698 38.429 L -14.698 19.869 L -20.658 38.429 C -20.765 38.722 -20.938 38.956 -21.178 39.129 C -21.418 39.302 -21.698 39.389 -22.018 39.389 L -25.498 39.389 C -25.978 39.389 -26.365 39.202 -26.658 38.829 C -26.925 38.376 -26.978 37.949 -26.818 37.549 L -17.778 10.429 C -17.698 10.162 -17.532 9.936 -17.278 9.749 C -17.025 9.562 -16.752 9.469 -16.458 9.469 L -12.938 9.469 C -12.618 9.469 -12.338 9.562 -12.098 9.749 C -11.858 9.936 -11.685 10.176 -11.578 10.469 L -5.658 28.869 L -0.058 10.469 C 0.048 10.176 0.228 9.936 0.482 9.749 C 0.735 9.562 1.008 9.469 1.302 9.469 L 4.542 9.469 C 5.048 9.469 5.435 9.669 5.702 10.069 Z M -29.338 10.469 L -27.058 17.949 C -26.898 18.402 -26.965 18.822 -27.258 19.209 C -27.552 19.596 -27.938 19.789 -28.418 19.789 L -31.578 19.789 C -31.898 19.789 -32.185 19.696 -32.438 19.509 C -32.692 19.322 -32.858 19.082 -32.938 18.789 L -35.258 11.309 C -35.418 10.856 -35.352 10.436 -35.058 10.049 C -34.765 9.662 -34.392 9.469 -33.938 9.469 L -30.698 9.469 C -30.378 9.469 -30.092 9.562 -29.838 9.749 C -29.585 9.936 -29.418 10.176 -29.338 10.469 Z M 30.742 33.389 C 31.142 33.389 31.475 33.529 31.742 33.809 C 32.008 34.089 32.142 34.429 32.142 34.829 L 32.142 37.749 C 32.142 38.122 32.008 38.449 31.742 38.729 C 31.475 39.009 31.142 39.149 30.742 39.149 L 10.982 39.149 C 10.608 39.149 10.282 39.009 10.002 38.729 C 9.722 38.449 9.582 38.122 9.582 37.749 L 9.582 34.829 C 9.582 34.429 9.722 34.089 10.002 33.809 C 10.282 33.529 10.608 33.389 10.982 33.389 L 30.742 33.389 Z M 10.982 27.189 C 10.608 27.189 10.282 27.049 10.002 26.769 C 9.722 26.489 9.582 26.162 9.582 25.789 L 9.582 22.789 C 9.582 22.416 9.722 22.089 10.002 21.809 C 10.282 21.529 10.608 21.389 10.982 21.389 L 28.942 21.389 C 29.342 21.389 29.682 21.529 29.962 21.809 C 30.242 22.089 30.382 22.416 30.382 22.789 L 30.382 25.789 C 30.382 26.162 30.242 26.489 29.962 26.769 C 29.682 27.049 29.342 27.189 28.942 27.189 L 10.982 27.189 Z M 30.742 9.469 C 31.142 9.469 31.475 9.609 31.742 9.889 C 32.008 10.169 32.142 10.496 32.142 10.869 L 32.142 13.789 C 32.142 14.189 32.008 14.529 31.742 14.809 C 31.475 15.089 31.142 15.229 30.742 15.229 L 10.982 15.229 C 10.608 15.229 10.282 15.089 10.002 14.809 C 9.722 14.529 9.582 14.189 9.582 13.789 L 9.582 10.869 C 9.582 10.496 9.722 10.169 10.002 9.889 C 10.282 9.609 10.608 9.469 10.982 9.469 L 30.742 9.469 Z M 83.142 34.389 C 83.542 34.389 83.875 34.529 84.142 34.809 C 84.408 35.089 84.542 35.429 84.542 35.829 L 84.542 38.749 C 84.542 39.122 84.408 39.449 84.142 39.729 C 83.875 40.009 83.542 40.149 83.142 40.149 L 63.382 40.149 C 63.008 40.149 62.682 40.009 62.402 39.729 C 62.122 39.449 61.982 39.122 61.982 38.749 L 61.982 35.829 C 61.982 35.429 62.122 35.089 62.402 34.809 C 62.682 34.529 63.008 34.389 63.382 34.389 L 83.142 34.389 Z M 81.963 28.189 C 61.946 27.658 62.682 28.049 62.402 27.769 C 62.122 27.489 61.982 27.162 61.982 26.789 L 61.982 23.789 C 61.982 23.416 62.122 23.089 62.402 22.809 C 62.682 22.529 63.008 22.389 63.382 22.389 L 81.342 22.389 C 81.742 22.389 82.082 22.529 82.362 22.809 C 82.642 23.089 82.782 23.416 82.782 23.789 L 82.782 26.789 C 82.782 27.162 82.642 27.489 82.362 27.769 C 82.082 28.049 81.742 28.189 81.342 28.189 L 81.963 28.189 Z M 83.142 10.469 C 83.542 10.469 83.875 10.609 84.142 10.889 C 84.408 11.169 84.542 11.496 84.542 11.869 L 84.542 14.789 C 84.542 15.189 84.408 15.529 84.142 15.809 C 83.875 16.089 83.542 16.229 83.142 16.229 L 63.382 16.229 C 63.008 16.229 62.682 16.089 62.402 15.809 C 62.122 15.529 61.982 15.189 61.982 14.789 L 61.982 11.869 C 61.982 11.496 62.122 11.169 62.402 10.889 C 62.682 10.609 63.008 10.469 63.382 10.469 L 83.142 10.469 Z M 114.342 11.109 C 114.635 11.509 114.688 11.949 114.502 12.429 L 103.542 39.509 C 103.435 39.776 103.262 39.989 103.022 40.149 C 102.782 40.309 102.515 40.389 102.222 40.389 L 98.702 40.389 C 98.408 40.389 98.142 40.309 97.902 40.149 C 97.662 39.989 97.488 39.776 97.382 39.509 L 86.422 12.429 C 86.208 11.976 86.248 11.536 86.542 11.109 C 86.835 10.682 87.222 10.469 87.702 10.469 L 101.062 10.469 C 101.435 10.469 101.762 10.609 102.042 10.889 C 102.322 11.169 102.462 11.509 102.462 11.909 L 102.462 14.829 C 102.462 15.229 102.322 15.569 102.042 15.849 C 101.762 16.129 101.435 16.269 101.062 16.269 L 94.342 16.269 L 100.462 31.669 L 108.502 11.349 C 108.608 11.082 108.782 10.869 109.022 10.709 C 109.262 10.549 109.528 10.469 109.822 10.469 L 113.182 10.469 C 113.422 10.469 113.648 10.529 113.862 10.649 C 114.075 10.769 114.235 10.922 114.342 11.109 Z" style="fill: url(&quot;#gradient-0&quot;);"/>
  </g>
</svg>