<?xml version="1.0" encoding="utf-8"?>
<svg xmlns="http://www.w3.org/2000/svg" viewBox="26.589 27.3571 217.1385 59.6043" width="217.139px" height="59.6051px">
  <defs>
    <linearGradient gradientUnits="userSpaceOnUse" x1="46.852" y1="-19.581" x2="46.852" y2="23.702" id="gradient-1" gradientTransform="matrix(1.075903, -0.821833, 1.024192, 1.340824, -25.011094, 93.106781)">
      <stop offset="0" style="stop-color: rgb(57, 32, 170);"/>
      <stop offset="1" style="stop-color: rgb(183, 13, 137);"/>
    </linearGradient>
    <linearGradient gradientUnits="userSpaceOnUse" x1="41.634" y1="9.469" x2="41.634" y2="40.389" id="gradient-0" gradientTransform="matrix(-0.00165, -0.765442, 3.908461, -0.008094, -20.774403, 61.402723)">
      <stop offset="0" style="stop-color: rgb(57, 33, 171);"/>
      <stop offset="1" style="stop-color: rgb(216, 8, 128);"/>
    </linearGradient>
  </defs>
  <g transform="matrix(1, 0, 0, 1.017138957977295, 26.209995269775394, -1.2305680513381958)" style="">
    <rect style="stroke: rgb(0, 0, 0); fill-opacity: 0.96; fill: url(&quot;#gradient-1&quot;); stroke-linecap: round; stroke-miterlimit: 1; paint-order: stroke; stroke-width: 0px;" fill="#6b3b98" x="0.379" y="28.106" width="54.258" height="58.6" rx="7" ry="7"/>
    <path d="M 37.695 62.862 C 38.963 61.534 38.761 59.659 37.249 58.696 L 34.397 56.88 C 32.884 55.916 31.977 53.59 32.377 51.709 L 35.811 35.591 C 36.21 33.712 35.502 33.26 34.235 34.589 L 16.643 53.031 C 15.375 54.359 15.577 56.236 17.088 57.2 L 19.939 59.013 C 21.453 59.976 22.361 62.306 21.963 64.185 L 18.527 80.302 C 18.127 82.183 18.835 82.634 20.102 81.306 L 37.695 62.862 Z" style="fill-rule: evenodd; fill: rgb(255, 255, 255);" fill="#6b3b98"/>
  </g>
  <g transform="matrix(1.6005940437316895, 0, 0, 1.6280269622802734, 62.883296966552734, 12.501745223999023)" fill="#1a1a1a" style="">
    <path d="M 48.227 16.946 C 48.435 17.232 48.488 17.549 48.384 17.895 L 41.791 38.624 C 41.729 38.848 41.598 39.032 41.401 39.175 C 41.202 39.318 40.979 39.389 40.729 39.389 L 38.011 39.389 C 37.781 39.389 37.568 39.318 37.37 39.175 C 37.172 39.032 37.042 38.859 36.98 38.654 L 32.293 24.448 L 27.638 38.654 C 27.555 38.878 27.419 39.058 27.232 39.19 C 27.045 39.322 26.826 39.389 26.576 39.389 L 23.858 39.389 C 23.483 39.389 23.181 39.246 22.952 38.96 C 22.743 38.614 22.702 38.287 22.827 37.981 L 29.888 17.222 C 29.95 17.017 30.08 16.844 30.278 16.701 C 30.476 16.558 30.689 16.487 30.919 16.487 L 33.668 16.487 C 33.918 16.487 34.137 16.558 34.324 16.701 C 34.512 16.844 34.647 17.028 34.73 17.252 L 39.354 31.337 L 43.728 17.252 C 43.811 17.028 43.952 16.844 44.15 16.701 C 44.348 16.558 44.561 16.487 44.791 16.487 L 47.321 16.487 C 47.717 16.487 48.019 16.64 48.227 16.946 Z M 20.858 17.252 L 22.639 22.978 C 22.764 23.325 22.712 23.646 22.483 23.942 C 22.253 24.239 21.952 24.386 21.577 24.386 L 19.109 24.386 C 18.859 24.386 18.635 24.315 18.437 24.172 C 18.239 24.029 18.109 23.845 18.047 23.621 L 16.234 17.895 C 16.109 17.549 16.161 17.227 16.391 16.931 C 16.619 16.635 16.911 16.487 17.265 16.487 L 19.796 16.487 C 20.046 16.487 20.269 16.558 20.468 16.701 C 20.665 16.844 20.796 17.028 20.858 17.252 Z M 67.786 34.796 C 68.098 34.796 68.358 34.903 68.567 35.118 C 68.774 35.332 68.879 35.592 68.879 35.899 L 68.879 38.134 C 68.879 38.419 68.774 38.669 68.567 38.884 C 68.358 39.098 68.098 39.205 67.786 39.205 L 52.352 39.205 C 52.059 39.205 51.805 39.098 51.586 38.884 C 51.367 38.669 51.258 38.419 51.258 38.134 L 51.258 35.899 C 51.258 35.592 51.367 35.332 51.586 35.118 C 51.805 34.903 52.059 34.796 52.352 34.796 L 67.786 34.796 Z M 52.352 30.051 C 52.059 30.051 51.805 29.943 51.586 29.729 C 51.367 29.515 51.258 29.264 51.258 28.979 L 51.258 26.683 C 51.258 26.397 51.367 26.147 51.586 25.933 C 51.805 25.718 52.059 25.611 52.352 25.611 L 66.38 25.611 C 66.692 25.611 66.958 25.718 67.176 25.933 C 67.395 26.147 67.504 26.397 67.504 26.683 L 67.504 28.979 C 67.504 29.264 67.395 29.515 67.176 29.729 C 66.958 29.943 66.692 30.051 66.38 30.051 L 52.352 30.051 Z M 67.786 16.487 C 68.098 16.487 68.358 16.594 68.567 16.808 C 68.774 17.023 68.879 17.273 68.879 17.559 L 68.879 19.794 C 68.879 20.1 68.774 20.36 68.567 20.574 C 68.358 20.789 68.098 20.896 67.786 20.896 L 52.352 20.896 C 52.059 20.896 51.805 20.789 51.586 20.574 C 51.367 20.36 51.258 20.1 51.258 19.794 L 51.258 17.559 C 51.258 17.273 51.367 17.023 51.586 16.808 C 51.805 16.594 52.059 16.487 52.352 16.487 L 67.786 16.487 Z M 88.406 34.796 C 88.719 34.796 88.979 34.903 89.187 35.118 C 89.395 35.332 89.5 35.592 89.5 35.899 L 89.5 38.134 C 89.5 38.419 89.395 38.669 89.187 38.884 C 88.979 39.098 88.719 39.205 88.406 39.205 L 72.972 39.205 C 72.68 39.205 72.425 39.098 72.207 38.884 C 71.988 38.669 71.878 38.419 71.878 38.134 L 71.878 35.899 C 71.878 35.592 71.988 35.332 72.207 35.118 C 72.425 34.903 72.68 34.796 72.972 34.796 L 88.406 34.796 Z M 87.485 30.051 C 71.85 29.644 72.425 29.943 72.207 29.729 C 71.988 29.515 71.878 29.264 71.878 28.979 L 71.878 26.683 C 71.878 26.397 71.988 26.147 72.207 25.933 C 72.425 25.718 72.68 25.611 72.972 25.611 L 87 25.611 C 87.313 25.611 87.578 25.718 87.797 25.933 C 88.016 26.147 88.125 26.397 88.125 26.683 L 88.125 28.979 C 88.125 29.264 88.016 29.515 87.797 29.729 C 87.578 29.943 87.313 30.051 87 30.051 L 87.485 30.051 Z M 88.406 16.487 C 88.719 16.487 88.979 16.594 89.187 16.808 C 89.395 17.023 89.5 17.273 89.5 17.559 L 89.5 19.794 C 89.5 20.1 89.395 20.36 89.187 20.574 C 88.979 20.789 88.719 20.896 88.406 20.896 L 72.972 20.896 C 72.68 20.896 72.425 20.789 72.207 20.574 C 71.988 20.36 71.878 20.1 71.878 19.794 L 71.878 17.559 C 71.878 17.273 71.988 17.023 72.207 16.808 C 72.425 16.594 72.68 16.487 72.972 16.487 L 88.406 16.487 Z M 112.776 16.977 C 113.005 17.283 113.046 17.62 112.901 17.987 L 104.34 38.715 C 104.257 38.92 104.121 39.083 103.934 39.205 C 103.747 39.328 103.538 39.389 103.309 39.389 L 100.56 39.389 C 100.33 39.389 100.122 39.328 99.935 39.205 C 99.747 39.083 99.611 38.92 99.529 38.715 L 90.968 17.987 C 90.801 17.64 90.832 17.304 91.062 16.977 C 91.291 16.65 91.593 16.487 91.968 16.487 L 102.403 16.487 C 102.694 16.487 102.95 16.594 103.169 16.808 C 103.387 17.023 103.497 17.283 103.497 17.589 L 103.497 19.824 C 103.497 20.13 103.387 20.391 103.169 20.605 C 102.95 20.819 102.694 20.927 102.403 20.927 L 97.154 20.927 L 101.934 32.714 L 108.214 17.161 C 108.297 16.956 108.433 16.793 108.62 16.671 C 108.808 16.548 109.016 16.487 109.245 16.487 L 111.87 16.487 C 112.057 16.487 112.234 16.533 112.401 16.625 C 112.567 16.717 112.692 16.834 112.776 16.977 Z" style="fill: url(&quot;#gradient-0&quot;);"/>
  </g>
</svg>