<?xml version="1.0" encoding="utf-8"?>
<svg xmlns="http://www.w3.org/2000/svg" viewBox="71.9476 293.2076 370.4202 83.5849" width="370.42px" height="83.5849px">
  <defs>
    <linearGradient gradientUnits="userSpaceOnUse" x1="45" y1="2.5" x2="45" y2="87.499" id="gradient-1">
      <stop offset="0" style="stop-color: rgb(57, 33, 171);"/>
      <stop offset="1" style="stop-color: rgb(216, 8, 128);"/>
    </linearGradient>
    <linearGradient gradientUnits="userSpaceOnUse" x1="38.931" y1="5.801" x2="38.931" y2="20.927" id="gradient-0" gradientTransform="matrix(0.006893, -0.999976, 5.310426, 0.036604, -33.016746, 51.627192)">
      <stop offset="0" style="stop-color: rgb(57, 33, 171);"/>
      <stop offset="1" style="stop-color: rgb(216, 8, 128);"/>
    </linearGradient>
  </defs>
  <g id="SvgjsG1012" featurekey="5TMTKC-0" transform="matrix(0.9833580255508423, 0, 0, 0.9833580255508423, 49.48642349243164, 290.7496032714844)" fill="#111111">
    <path xmlns="http://www.w3.org/2000/svg" d="M65.532,53.661c2.473-2.341,2.081-5.645-0.869-7.341L59.1,43.118c-2.95-1.697-4.723-5.797-3.941-9.109l6.699-28.398  c0.781-3.312-0.602-4.108-3.073-1.767L24.467,36.339c-2.472,2.341-2.08,5.644,0.87,7.342l5.562,3.2  c2.949,1.698,4.724,5.798,3.943,9.109l-6.701,28.398c-0.78,3.312,0.602,4.107,3.074,1.767L65.532,53.661z" style="fill: url(&quot;#gradient-1&quot;);"/>
  </g>
  <g id="SvgjsG1013" featurekey="7UBp9i-0" transform="matrix(3.910953998565674, 0, 0, 3.910953998565674, 136.90223693847656, 283.5201110839844)" fill="#111111">
    <path d="M13.105 6.122999999999999 l0 5.625 l-2.8027 0 l0 -4.834 l0 0 l0 -0.79102 l2.8027 0 z M2.5684 6.122999999999999 l0 9.5508 l3.8672 -4.7266 l4.3555 5.3223 l0 4.3848 l-4.3555 -5.332 l-3.9844 4.873 l-2.6953 0 l0 -14.072 l2.8125 0 z M23.03711 11.8066 l6.8164 0 l0 2.7148 l-6.8164 0 l0 -2.7148 z M23.03711 17.4805 l11.318 0 l0 2.7148 l-11.318 0 l0 -2.7148 z M23.03711 6.1129999999999995 l11.318 0 l0 2.7148 l-11.318 0 l0 -2.7148 z M44.2480475 11.8066 l6.8164 0 l0 2.7148 l-6.8164 0 l0 -2.7148 z M44.2480475 17.4805 l11.318 0 l0 2.7148 l-11.318 0 l0 -2.7148 z M44.2480475 6.1129999999999995 l11.318 0 l0 2.7148 l-11.318 0 l0 -2.7148 z M78.105125 9.863 l-5.3711 11.064 l-1.5625 -3.1836 l3.8281 -7.8809 l3.1055 0 z M68.457025 5.801 l2.7832 5.7129 l-1.5527 3.1836 l-4.3457 -8.8965 l3.1152 0 z" style="fill: url(&quot;#gradient-0&quot;);"/>
  </g>
</svg>