<?xml version="1.0" encoding="utf-8"?>
<svg xmlns="http://www.w3.org/2000/svg" viewBox="11.571 17.491 247.587 73.8703" width="247.588px" height="73.8713px">
  <defs>
    <linearGradient gradientUnits="userSpaceOnUse" x1="138.864" y1="20.664" x2="138.864" y2="70.577" id="gradient-1" gradientTransform="matrix(-0.752223, -0.355543, 0.307043, -0.840036, 225.425989, 132.454178)">
      <stop offset="0" style="stop-color: rgb(216, 8, 128);"/>
      <stop offset="1" style="stop-color: rgb(57, 33, 171);"/>
    </linearGradient>
    <linearGradient gradientUnits="userSpaceOnUse" x1="41.634" y1="9.469" x2="41.634" y2="40.389" id="gradient-0" gradientTransform="matrix(-0.002113, -0.999998, 5.003926, -0.010574, -59.51419, 68.148438)">
      <stop offset="0" style="stop-color: rgb(57, 33, 171);"/>
      <stop offset="1" style="stop-color: rgb(216, 8, 128);"/>
    </linearGradient>
  </defs>
  <g transform="matrix(1.4905340671539307, 0, 0, 1.6621921062469482, -170.84603881835938, -20.252412796020508)" fill="#6b3b98" style="">
    <path d="M 146.699 49.457 C 148.07 48.232 147.807 46.504 146.118 45.618 L 142.933 43.944 C 141.244 43.057 140.191 40.914 140.594 39.182 L 144.039 24.334 C 144.44 22.602 143.648 22.186 142.278 23.41 L 123.262 40.399 C 121.892 41.623 122.154 43.351 123.843 44.239 L 127.028 45.911 C 128.717 46.798 129.77 48.942 129.369 50.674 L 125.922 65.521 C 125.521 67.254 126.313 67.669 127.683 66.446 L 146.699 49.457 Z" style="fill: url(&quot;#gradient-1&quot;); transform-origin: 0.567608px 44.9278px;"/>
  </g>
  <g transform="matrix(1.6005940437316895, 0, 0, 1.6005940437316895, 78.71414184570312, 17.994062423706055)" fill="#1a1a1a">
    <path d="M 28.827 10.069 C 29.093 10.442 29.16 10.856 29.027 11.309 L 20.587 38.389 C 20.507 38.682 20.34 38.922 20.087 39.109 C 19.833 39.296 19.547 39.389 19.227 39.389 L 15.747 39.389 C 15.453 39.389 15.18 39.296 14.927 39.109 C 14.673 38.922 14.507 38.696 14.427 38.429 L 8.427 19.869 L 2.467 38.429 C 2.36 38.722 2.187 38.956 1.947 39.129 C 1.707 39.302 1.427 39.389 1.107 39.389 L -2.373 39.389 C -2.853 39.389 -3.24 39.202 -3.533 38.829 C -3.8 38.376 -3.853 37.949 -3.693 37.549 L 5.347 10.429 C 5.427 10.162 5.593 9.936 5.847 9.749 C 6.1 9.562 6.373 9.469 6.667 9.469 L 10.187 9.469 C 10.507 9.469 10.787 9.562 11.027 9.749 C 11.267 9.936 11.44 10.176 11.547 10.469 L 17.467 28.869 L 23.067 10.469 C 23.173 10.176 23.353 9.936 23.607 9.749 C 23.86 9.562 24.133 9.469 24.427 9.469 L 27.667 9.469 C 28.173 9.469 28.56 9.669 28.827 10.069 Z M -6.213 10.469 L -3.933 17.949 C -3.773 18.402 -3.84 18.822 -4.133 19.209 C -4.427 19.596 -4.813 19.789 -5.293 19.789 L -8.453 19.789 C -8.773 19.789 -9.06 19.696 -9.313 19.509 C -9.567 19.322 -9.733 19.082 -9.813 18.789 L -12.133 11.309 C -12.293 10.856 -12.227 10.436 -11.933 10.049 C -11.64 9.662 -11.267 9.469 -10.813 9.469 L -7.573 9.469 C -7.253 9.469 -6.967 9.562 -6.713 9.749 C -6.46 9.936 -6.293 10.176 -6.213 10.469 Z M 53.867 33.389 C 54.267 33.389 54.6 33.529 54.867 33.809 C 55.133 34.089 55.267 34.429 55.267 34.829 L 55.267 37.749 C 55.267 38.122 55.133 38.449 54.867 38.729 C 54.6 39.009 54.267 39.149 53.867 39.149 L 34.107 39.149 C 33.733 39.149 33.407 39.009 33.127 38.729 C 32.847 38.449 32.707 38.122 32.707 37.749 L 32.707 34.829 C 32.707 34.429 32.847 34.089 33.127 33.809 C 33.407 33.529 33.733 33.389 34.107 33.389 L 53.867 33.389 Z M 34.107 27.189 C 33.733 27.189 33.407 27.049 33.127 26.769 C 32.847 26.489 32.707 26.162 32.707 25.789 L 32.707 22.789 C 32.707 22.416 32.847 22.089 33.127 21.809 C 33.407 21.529 33.733 21.389 34.107 21.389 L 52.067 21.389 C 52.467 21.389 52.807 21.529 53.087 21.809 C 53.367 22.089 53.507 22.416 53.507 22.789 L 53.507 25.789 C 53.507 26.162 53.367 26.489 53.087 26.769 C 52.807 27.049 52.467 27.189 52.067 27.189 L 34.107 27.189 Z M 53.867 9.469 C 54.267 9.469 54.6 9.609 54.867 9.889 C 55.133 10.169 55.267 10.496 55.267 10.869 L 55.267 13.789 C 55.267 14.189 55.133 14.529 54.867 14.809 C 54.6 15.089 54.267 15.229 53.867 15.229 L 34.107 15.229 C 33.733 15.229 33.407 15.089 33.127 14.809 C 32.847 14.529 32.707 14.189 32.707 13.789 L 32.707 10.869 C 32.707 10.496 32.847 10.169 33.127 9.889 C 33.407 9.609 33.733 9.469 34.107 9.469 L 53.867 9.469 Z M 81.267 33.389 C 81.667 33.389 82 33.529 82.267 33.809 C 82.533 34.089 82.667 34.429 82.667 34.829 L 82.667 37.749 C 82.667 38.122 82.533 38.449 82.267 38.729 C 82 39.009 81.667 39.149 81.267 39.149 L 61.507 39.149 C 61.133 39.149 60.807 39.009 60.527 38.729 C 60.247 38.449 60.107 38.122 60.107 37.749 L 60.107 34.829 C 60.107 34.429 60.247 34.089 60.527 33.809 C 60.807 33.529 61.133 33.389 61.507 33.389 L 81.267 33.389 Z M 80.088 27.189 C 60.071 26.658 60.807 27.049 60.527 26.769 C 60.247 26.489 60.107 26.162 60.107 25.789 L 60.107 22.789 C 60.107 22.416 60.247 22.089 60.527 21.809 C 60.807 21.529 61.133 21.389 61.507 21.389 L 79.467 21.389 C 79.867 21.389 80.207 21.529 80.487 21.809 C 80.767 22.089 80.907 22.416 80.907 22.789 L 80.907 25.789 C 80.907 26.162 80.767 26.489 80.487 26.769 C 80.207 27.049 79.867 27.189 79.467 27.189 L 80.088 27.189 Z M 81.267 9.469 C 81.667 9.469 82 9.609 82.267 9.889 C 82.533 10.169 82.667 10.496 82.667 10.869 L 82.667 13.789 C 82.667 14.189 82.533 14.529 82.267 14.809 C 82 15.089 81.667 15.229 81.267 15.229 L 61.507 15.229 C 61.133 15.229 60.807 15.089 60.527 14.809 C 60.247 14.529 60.107 14.189 60.107 13.789 L 60.107 10.869 C 60.107 10.496 60.247 10.169 60.527 9.889 C 60.807 9.609 61.133 9.469 61.507 9.469 L 81.267 9.469 Z M 112.467 10.109 C 112.76 10.509 112.813 10.949 112.627 11.429 L 101.667 38.509 C 101.56 38.776 101.387 38.989 101.147 39.149 C 100.907 39.309 100.64 39.389 100.347 39.389 L 96.827 39.389 C 96.533 39.389 96.267 39.309 96.027 39.149 C 95.787 38.989 95.613 38.776 95.507 38.509 L 84.547 11.429 C 84.333 10.976 84.373 10.536 84.667 10.109 C 84.96 9.682 85.347 9.469 85.827 9.469 L 99.187 9.469 C 99.56 9.469 99.887 9.609 100.167 9.889 C 100.447 10.169 100.587 10.509 100.587 10.909 L 100.587 13.829 C 100.587 14.229 100.447 14.569 100.167 14.849 C 99.887 15.129 99.56 15.269 99.187 15.269 L 92.467 15.269 L 98.587 30.669 L 106.627 10.349 C 106.733 10.082 106.907 9.869 107.147 9.709 C 107.387 9.549 107.653 9.469 107.947 9.469 L 111.307 9.469 C 111.547 9.469 111.773 9.529 111.987 9.649 C 112.2 9.769 112.36 9.922 112.467 10.109 Z" style="fill: url(&quot;#gradient-0&quot;);"/>
  </g>
</svg>